name C:\Users\u0101727\Documents\MyRepositories\upper-imu-dc\Results\main_tracking\Case_41\FLX01_linearAccelerations_groundFrame.mot
datacolumns 4
datarows 47
range 0.51000000 0.97000000
endheader 
time	radius_imu_x	radius_imu_y	radius_imu_z	
          0.51000000	         -1.42200334	          9.79570205	         -2.99179543	
          0.52000000	         -1.44153291	          9.79240586	         -3.06877629	
          0.53000000	         -1.46205557	          9.79277901	         -3.10317575	
          0.54000000	         -1.46660526	          9.80311390	         -3.09839084	
          0.55000000	         -1.43469168	          9.82395859	         -3.07834257	
          0.56000000	         -1.38336844	          9.85532273	         -3.00510284	
          0.57000000	         -1.30588660	          9.89909762	         -2.89873393	
          0.58000000	         -1.24641054	          9.92654578	         -2.83039117	
          0.59000000	         -1.18667915	          9.98277583	         -2.66466253	
          0.60000000	         -1.15535909	         10.03357219	         -2.50528743	
          0.61000000	         -1.15596507	         10.08160485	         -2.35380570	
          0.62000000	         -1.15571694	         10.13429904	         -2.19087737	
          0.63000000	         -1.15505817	         10.20786395	         -1.96882921	
          0.64000000	         -1.11942212	         10.29365072	         -1.71965252	
          0.65000000	         -1.11383469	         10.36558716	         -1.52779020	
          0.66000000	         -1.10874289	         10.43655118	         -1.34297128	
          0.67000000	         -1.18092466	         10.50621417	         -1.16308930	
          0.68000000	         -1.31782819	         10.57358613	         -0.99315393	
          0.69000000	         -1.46842404	         10.64317818	         -0.83528082	
          0.70000000	         -1.60573268	         10.71210371	         -0.70489803	
          0.71000000	         -1.72474375	         10.77989181	         -0.60070320	
          0.72000000	         -1.84206004	         10.84210080	         -0.52774964	
          0.73000000	         -1.97586880	         10.89677409	         -0.48424565	
          0.74000000	         -2.12728047	         10.94290517	         -0.46862923	
          0.75000000	         -2.29134153	         10.98101126	         -0.47764193	
          0.76000000	         -2.46127961	         11.01173391	         -0.50711891	
          0.77000000	         -2.63284160	         11.03580428	         -0.55202570	
          0.78000000	         -2.80441422	         11.05432012	         -0.60574840	
          0.79000000	         -2.97615698	         11.06834092	         -0.66225548	
          0.80000000	         -3.14733037	         11.07981773	         -0.71462221	
          0.81000000	         -3.31872694	         11.08983650	         -0.75920413	
          0.82000000	         -3.48974458	         11.10057239	         -0.79159720	
          0.83000000	         -3.66048870	         11.11318678	         -0.81089219	
          0.84000000	         -3.83112458	         11.12856609	         -0.81768013	
          0.85000000	         -4.00211496	         11.14665975	         -0.81485738	
          0.86000000	         -4.17354584	         11.16696106	         -0.80627278	
          0.87000000	         -4.34511227	         11.18859415	         -0.79614920	
          0.88000000	         -4.51597845	         11.21061409	         -0.78820523	
          0.89000000	         -4.68486870	         11.23227704	         -0.78510987	
          0.90000000	         -4.84994256	         11.25322339	         -0.78832955	
          0.91000000	         -5.00905379	         11.27364013	         -0.79803348	
          0.92000000	         -5.15998663	         11.29443888	         -0.81309786	
          0.93000000	         -5.30016965	         11.31742698	         -0.83137907	
          0.94000000	         -5.42730626	         11.34508318	         -0.85017067	
          0.95000000	         -5.54040035	         11.37967814	         -0.86721102	
          0.96000000	         -5.64041500	         11.42205921	         -0.88209347	
          0.97000000	         -5.73041599	         11.47062505	         -0.89725508	
